# xmcd
#
# Track frame offsets: 
#        150
#        11195
#        23407
#        38115
#        53337
#        65520
#        76923
#        90965
#        102107
#        114374
#        125748
#        138411
#        151589
#        161944
#        173560
#        185350
#        197292
#        209969
#        221775
#        236149
#
# Disc length: 3311 seconds
#
# Revision: 0
# Processed by: cddbd v1.5.2PL0 Copyright (c) Steve Scherf et al.
# Submitted via: ExactAudioCopyFreeDBPlugin 1.0
#
DISCID=050ced14
DTITLE=Various Artist - 60 Country Hits
DYEAR=2019
DGENRE=Country
TTITLE0=Buck Owens - Above And Beyond
TTITLE1=Kitty Wells - Amigo's Guitar
TTITLE2=Bill Monroe - Mansions For Me
TTITLE3=Merle Haggard - Mule Skinner Blues
TTITLE4=Roy Acuff - I Saw The Light
TTITLE5=Jimmie Rodgers - Blue Yodel No.5
TTITLE6=Jim Reeves - I Fall To Pieces
TTITLE7=Glen Campbell - Oh My Darlin'
TTITLE8=Hank Williams - Your Cheatin' Heart
TTITLE9=Stonewall Jackson - Run
TTITLE10=The Stanley Brothers - Say You Won't Be Mine
TTITLE11=George Jones - Seasons Of My Heart
TTITLE12=Marty Robbins - I Hang My Head And Cry
TTITLE13=Marvin Rainwater - Gonna Find Me A Bluebird
TTITLE14=Tennessee Ernie Ford - Sixteen Tons
TTITLE15=Carl Smith - Time Changes Everything
TTITLE16=Porter Wagoner - A Satisfied Mind
TTITLE17=Bob Wills - New San Antonio Rose
TTITLE18=The Carter Familiy - Wildwood Flower
TTITLE19=Lester Flatt and Earl Scruggs - Foggy Mountain Breakdown
EXTD=
EXTT0=
EXTT1=
EXTT2=
EXTT3=
EXTT4=
EXTT5=
EXTT6=
EXTT7=
EXTT8=
EXTT9=
EXTT10=
EXTT11=
EXTT12=
EXTT13=
EXTT14=
EXTT15=
EXTT16=
EXTT17=
EXTT18=
EXTT19=
PLAYORDER=
